<?xml version="1.0" encoding="utf-8"?>
<svg width="568px" height="169px" viewBox="0 0 568 169" version="1.1" xmlns:xlink="http://www.w3.org/1999/xlink" xmlns="http://www.w3.org/2000/svg">
  <defs>
    <linearGradient x1="0.42105263" y1="0.9882353" x2="0.4019711" y2="0.552941" id="gradient_1">
      <stop offset="0" stop-color="#003757" />
      <stop offset="1" stop-color="#05678D" />
    </linearGradient>
    <rect width="568" height="169" id="artboard_1" />
    <clipPath id="clip_1">
      <use xlink:href="#artboard_1" clip-rule="evenodd" />
    </clipPath>
  </defs>
  <g id="title" clip-path="url(#clip_1)">
    <use xlink:href="#artboard_1" stroke="none" fill="#333333" />
    <path d="M24.999 0L543.001 0Q543.615 0 544.228 0.0301124Q544.841 0.0602248 545.451 0.120377Q546.062 0.180529 546.669 0.270576Q547.276 0.360624 547.878 0.480349Q548.48 0.600074 549.075 0.749189Q549.671 0.898303 550.258 1.07645Q550.845 1.25459 551.423 1.46134Q552.001 1.66809 552.568 1.90294Q553.135 2.13778 553.689 2.40017Q554.244 2.66256 554.785 2.95185Q555.327 3.24114 555.853 3.55664Q556.379 3.87214 556.89 4.21309Q557.4 4.55404 557.893 4.91961Q558.386 5.28519 558.86 5.67451Q559.335 6.06383 559.789 6.47596Q560.244 6.88809 560.678 7.32204Q561.112 7.75598 561.524 8.2107Q561.936 8.66541 562.325 9.1398Q562.715 9.61419 563.08 10.1071Q563.446 10.6 563.787 11.1103Q564.128 11.6206 564.443 12.1469Q564.759 12.6733 565.048 13.2146Q565.337 13.7558 565.6 14.3105Q565.862 14.8653 566.097 15.4323Q566.332 15.9993 566.539 16.5771Q566.745 17.1549 566.924 17.7422Q567.102 18.3294 567.251 18.9247Q567.4 19.52 567.52 20.1219Q567.639 20.7238 567.729 21.3309Q567.819 21.9379 567.88 22.5487Q567.94 23.1594 567.97 23.7724Q568 24.3853 568 24.999L568 144.001Q568 144.615 567.97 145.228Q567.94 145.841 567.88 146.451Q567.819 147.062 567.729 147.669Q567.639 148.276 567.52 148.878Q567.4 149.48 567.251 150.075Q567.102 150.671 566.924 151.258Q566.745 151.845 566.539 152.423Q566.332 153.001 566.097 153.568Q565.862 154.135 565.6 154.689Q565.337 155.244 565.048 155.785Q564.759 156.327 564.443 156.853Q564.128 157.379 563.787 157.89Q563.446 158.4 563.08 158.893Q562.715 159.386 562.325 159.86Q561.936 160.335 561.524 160.789Q561.112 161.244 560.678 161.678Q560.244 162.112 559.789 162.524Q559.335 162.936 558.86 163.325Q558.386 163.715 557.893 164.08Q557.4 164.446 556.89 164.787Q556.379 165.128 555.853 165.443Q555.327 165.759 554.785 166.048Q554.244 166.337 553.689 166.6Q553.135 166.862 552.568 167.097Q552.001 167.332 551.423 167.539Q550.845 167.745 550.258 167.924Q549.671 168.102 549.075 168.251Q548.48 168.4 547.878 168.52Q547.276 168.639 546.669 168.729Q546.062 168.819 545.451 168.88Q544.841 168.94 544.228 168.97Q543.615 169 543.001 169L24.999 169Q24.3853 169 23.7724 168.97Q23.1594 168.94 22.5487 168.88Q21.9379 168.819 21.3309 168.729Q20.7238 168.639 20.1219 168.52Q19.52 168.4 18.9247 168.251Q18.3294 168.102 17.7422 167.924Q17.1549 167.745 16.5771 167.539Q15.9993 167.332 15.4323 167.097Q14.8653 166.862 14.3105 166.6Q13.7558 166.337 13.2146 166.048Q12.6733 165.759 12.1469 165.443Q11.6206 165.128 11.1103 164.787Q10.6 164.446 10.1071 164.08Q9.61419 163.715 9.1398 163.325Q8.66541 162.936 8.2107 162.524Q7.75598 162.112 7.32204 161.678Q6.88809 161.244 6.47596 160.789Q6.06383 160.335 5.67451 159.86Q5.28519 159.386 4.91961 158.893Q4.55404 158.4 4.21309 157.89Q3.87214 157.379 3.55664 156.853Q3.24114 156.327 2.95185 155.785Q2.66256 155.244 2.40017 154.689Q2.13778 154.135 1.90294 153.568Q1.66809 153.001 1.46134 152.423Q1.25459 151.845 1.07645 151.258Q0.898303 150.671 0.749189 150.075Q0.600074 149.48 0.480349 148.878Q0.360624 148.276 0.270576 147.669Q0.180529 147.062 0.120377 146.451Q0.0602248 145.841 0.0301124 145.228Q0 144.615 0 144.001L0 24.999Q0 24.3853 0.0301124 23.7724Q0.0602248 23.1594 0.120377 22.5487Q0.180529 21.9379 0.270576 21.3309Q0.360624 20.7238 0.480349 20.1219Q0.600074 19.52 0.749189 18.9247Q0.898303 18.3294 1.07645 17.7422Q1.25459 17.1549 1.46134 16.5771Q1.66809 15.9993 1.90294 15.4323Q2.13778 14.8653 2.40017 14.3105Q2.66256 13.7558 2.95185 13.2146Q3.24114 12.6733 3.55664 12.1469Q3.87214 11.6206 4.21309 11.1103Q4.55404 10.6 4.91961 10.1071Q5.28519 9.61419 5.67451 9.1398Q6.06383 8.66541 6.47596 8.2107Q6.88809 7.75598 7.32204 7.32204Q7.75598 6.88809 8.2107 6.47596Q8.66541 6.06383 9.1398 5.67451Q9.61419 5.28519 10.1071 4.91961Q10.6 4.55404 11.1103 4.21309Q11.6206 3.87214 12.1469 3.55664Q12.6733 3.24114 13.2146 2.95185Q13.7558 2.66256 14.3105 2.40017Q14.8653 2.13778 15.4323 1.90294Q15.9993 1.66809 16.5771 1.46134Q17.1549 1.25459 17.7422 1.07645Q18.3294 0.898303 18.9247 0.749189Q19.52 0.600074 20.1219 0.480349Q20.7238 0.360624 21.3309 0.270576Q21.9379 0.180529 22.5487 0.120377Q23.1594 0.0602248 23.7724 0.0301124Q24.3853 0 24.999 0L24.999 0Z" id="Rectangle-2" fill="#FFFFFF" fill-rule="evenodd" stroke="none" />
    <g id="logo" transform="translate(49.000122 39)">
      <g id="Logo">
        <g id="PERSISTENCE-PRESS" transform="translate(0 20)">
          <path d="M120.056 29.432C126.536 33.704 126.824 39.08 124.856 42.392C124.856 42.392 122.888 46.328 115.592 46.328C108.536 46.328 105.032 43.736 105.032 43.736L105.032 34.52L105.512 34.52C105.752 41.864 107.624 45.8 115.592 45.8C123.944 45.8 124.616 37.112 119.096 33.272L110.888 27.848C107.432 25.448 102.152 21.368 105.704 15.416C105.704 15.416 108.056 11.672 114.296 11.672C120.632 11.672 124.568 13.928 124.568 13.928L124.568 21.992L123.992 21.992C123.8 16.136 122.456 12.2 114.296 12.2C109.112 12.2 104.12 19.064 111.848 24.056L120.056 29.432ZM156.384 29.432C162.864 33.704 163.152 39.08 161.184 42.392C161.184 42.392 159.216 46.328 151.92 46.328C144.864 46.328 141.36 43.736 141.36 43.736L141.36 34.52L141.84 34.52C142.08 41.864 143.952 45.8 151.92 45.8C160.272 45.8 160.944 37.112 155.424 33.272L147.216 27.848C143.76 25.448 138.48 21.368 142.032 15.416C142.032 15.416 144.384 11.672 150.624 11.672C156.96 11.672 160.896 13.928 160.896 13.928L160.896 21.992L160.32 21.992C160.128 16.136 158.784 12.2 150.624 12.2C145.44 12.2 140.448 19.064 148.176 24.056L156.384 29.432ZM271.088 45.8C274.016 45.8 280.88 44.36 281.168 36.008L281.696 36.008L282.176 43.352C278.624 45.704 276.224 46.328 271.088 46.328C261.296 46.328 254.432 40.232 254.432 29C254.432 17.576 261.296 11.672 271.088 11.672C276.032 11.672 279.152 12.152 282.176 14.6L281.696 21.944L281.168 21.944C280.496 13.304 274.16 12.2 271.088 12.2C266.24 12.2 259.328 13.832 259.328 29C259.328 44.504 266.384 45.8 271.088 45.8ZM418.308 42.392C420.276 39.08 419.988 33.704 413.508 29.432L405.3 24.056C397.572 19.064 402.564 12.2 407.748 12.2C415.908 12.2 417.252 16.136 417.444 21.992L418.02 21.992L418.02 13.928C418.02 13.928 414.084 11.672 407.748 11.672C401.508 11.672 399.156 15.416 399.156 15.416C395.604 21.368 400.884 25.448 404.34 27.848L412.548 33.272C418.068 37.112 417.396 45.8 409.044 45.8C401.076 45.8 399.204 41.864 398.964 34.52L398.484 34.52L398.484 43.736C398.484 43.736 401.988 46.328 409.044 46.328C416.34 46.328 418.308 42.392 418.308 42.392ZM437.72 29.432C444.2 33.704 444.488 39.08 442.52 42.392C442.52 42.392 440.552 46.328 433.256 46.328C426.2 46.328 422.696 43.736 422.696 43.736L422.696 34.52L423.176 34.52C423.416 41.864 425.288 45.8 433.256 45.8C441.608 45.8 442.28 37.112 436.76 33.272L428.552 27.848C425.096 25.448 419.816 21.368 423.368 15.416C423.368 15.416 425.72 11.672 431.96 11.672C438.296 11.672 442.232 13.928 442.232 13.928L442.232 21.992L441.656 21.992C441.464 16.136 440.12 12.2 431.96 12.2C426.776 12.2 421.784 19.064 429.512 24.056L437.72 29.432ZM35.036 31.4L34.604 31.4L34.604 39.32C34.604 45.272 35.42 45.368 38.924 45.368L38.924 45.896L27.836 45.896L27.836 45.368C30.332 45.368 31.004 44.696 31.004 39.512L31.004 16.616C31.004 13.112 30.668 12.584 28.076 12.584L28.076 12.104L35.036 12.104C44.588 12.104 50.78 13.016 50.78 21.8C50.78 30.536 44.588 31.4 35.036 31.4ZM61.7546 45.3687C67.9657 45.3794 73.9518 45.3897 74.416 36.152L74.944 36.152L74.944 45.896L52.288 45.896L52.288 45.368C54.304 45.368 54.736 44.024 54.736 40.76L54.736 16.472C54.736 13.496 54.4 12.632 52.288 12.632L52.288 12.104L74.32 12.104L74.32 20.504L73.792 20.504C73.552 12.728 67.6 12.632 61.744 12.632L58.672 12.632L58.672 28.568L62.512 28.568C64.432 28.568 68.464 28.52 68.608 23.816L69.136 23.816L69.136 33.896L68.608 33.896C68.464 29.144 64.336 29.096 62.512 29.096L58.672 29.096L58.672 45.368L61.12 45.368C61.3316 45.368 61.5432 45.3684 61.7546 45.3687ZM104.676 45.368C103.428 45.272 100.548 45.032 99.732 41.336C97.3103 30.6628 94.5535 30.4222 91.5789 30.1627C91.3697 30.1444 91.1594 30.1261 90.948 30.104C95.844 29.96 99.684 28.088 99.684 21.272C99.684 13.256 95.076 12.104 85.524 12.104L77.748 12.104L77.748 12.632C79.86 12.632 80.484 13.016 80.484 15.992L80.484 40.328C80.484 44.792 79.812 45.368 77.748 45.368L77.748 45.896L86.916 45.896L86.916 45.368C84.9 45.368 84.036 44.648 84.036 41.288L84.036 30.344L86.292 30.344C88.164 30.344 93.252 30.344 94.452 35.432C96.9 45.848 96.42 45.896 101.412 45.896L104.676 45.896L104.676 45.368ZM129.388 12.104L129.388 12.584C131.5 12.584 132.412 13.16 132.412 16.136L132.412 41.096C132.412 44.36 131.452 45.368 129.388 45.368L129.388 45.896L139.276 45.896L139.276 45.368C137.26 45.368 136.3 44.36 136.3 41.096L136.3 16.136C136.3 13.16 137.212 12.584 139.276 12.584L139.276 12.104L129.388 12.104ZM164.276 12.104L164.276 19.976L164.756 19.976C164.852 12.632 170.564 12.584 172.772 12.584L176.564 12.584L176.564 41.816C176.564 44.936 175.412 45.368 173.396 45.368L173.396 45.896L183.38 45.896L183.38 45.368C181.364 45.368 180.212 44.936 180.212 41.816L180.212 12.584L184.004 12.584C185.012 12.584 191.924 12.632 192.02 19.976L192.548 19.976L192.548 12.104L164.276 12.104ZM202.515 45.3687C208.726 45.3794 214.712 45.3897 215.176 36.152L215.704 36.152L215.704 45.896L193.048 45.896L193.048 45.368C195.064 45.368 195.496 44.024 195.496 40.76L195.496 16.472C195.496 13.496 195.16 12.632 193.048 12.632L193.048 12.104L215.08 12.104L215.08 20.504L214.552 20.504C214.312 12.728 208.36 12.632 202.504 12.632L199.432 12.632L199.432 28.568L203.272 28.568C205.192 28.568 209.224 28.52 209.368 23.816L209.896 23.816L209.896 33.896L209.368 33.896C209.224 29.144 205.096 29.096 203.272 29.096L199.432 29.096L199.432 45.368L201.88 45.368C202.092 45.368 202.303 45.3684 202.515 45.3687ZM240.348 12.104L240.348 12.584C246.492 12.584 246.492 17.24 246.492 23.912L246.492 40.328L225.036 12.104L217.596 12.104L217.596 12.584C217.684 12.5907 217.772 12.5961 217.861 12.6014C219.048 12.6729 220.452 12.7575 223.308 16.328L225.324 18.968L225.324 33.992C225.324 40.472 225.276 45.368 218.508 45.368L218.508 45.896L232.044 45.896L232.044 45.368C225.852 45.368 225.852 40.376 225.852 33.992L225.852 19.592L246.012 45.896L247.02 45.896L247.02 23.912C247.02 23.775 247.02 23.6388 247.02 23.5035C247.017 17.0507 247.015 12.584 253.644 12.584L253.644 12.104L240.348 12.104ZM305.908 36.152C305.444 45.3897 299.458 45.3794 293.247 45.3687C293.035 45.3684 292.824 45.368 292.612 45.368L290.164 45.368L290.164 29.096L294.004 29.096C295.828 29.096 299.956 29.144 300.1 33.896L300.628 33.896L300.628 23.816L300.1 23.816C299.956 28.52 295.924 28.568 294.004 28.568L290.164 28.568L290.164 12.632L293.236 12.632C299.092 12.632 305.044 12.728 305.284 20.504L305.812 20.504L305.812 12.104L283.78 12.104L283.78 12.632C285.892 12.632 286.228 13.496 286.228 16.472L286.228 40.76C286.228 44.024 285.796 45.368 283.78 45.368L283.78 45.896L306.436 45.896L306.436 36.152L305.908 36.152ZM328.488 31.4L328.056 31.4L328.056 39.32C328.056 45.272 328.872 45.368 332.376 45.368L332.376 45.896L321.288 45.896L321.288 45.368C323.784 45.368 324.456 44.696 324.456 39.512L324.456 16.616C324.456 13.112 324.12 12.584 321.528 12.584L321.528 12.104L328.488 12.104C338.04 12.104 344.232 13.016 344.232 21.8C344.232 30.536 338.04 31.4 328.488 31.4ZM372.18 45.3599C370.883 45.2567 368.134 44.9331 367.34 41.336C364.918 30.6628 362.161 30.4222 359.187 30.1627C358.978 30.1444 358.767 30.1261 358.556 30.104C363.452 29.96 367.292 28.088 367.292 21.272C367.292 13.256 362.684 12.104 353.132 12.104L345.356 12.104L345.356 12.632C347.468 12.632 348.092 13.016 348.092 15.992L348.092 40.328C348.092 44.792 347.42 45.368 345.356 45.368L345.356 45.896L354.524 45.896L354.524 45.368C352.508 45.368 351.644 44.648 351.644 41.288L351.644 30.344L353.9 30.344C355.772 30.344 360.86 30.344 362.06 35.432C364.508 45.848 364.028 45.896 369.02 45.896L394.576 45.896L394.576 36.152L394.048 36.152C393.584 45.3897 387.598 45.3794 381.387 45.3687C381.175 45.3684 380.964 45.368 380.752 45.368L378.304 45.368L378.304 29.096L382.144 29.096C383.968 29.096 388.096 29.144 388.24 33.896L388.768 33.896L388.768 23.816L388.24 23.816C388.096 28.52 384.064 28.568 382.144 28.568L378.304 28.568L378.304 12.632L381.376 12.632C387.232 12.632 393.184 12.728 393.424 20.504L393.952 20.504L393.952 12.104L371.92 12.104L371.92 12.632C374.032 12.632 374.368 13.496 374.368 16.472L374.368 40.76C374.368 43.8784 373.974 45.2443 372.18 45.3599ZM34.604 12.584L34.604 30.872L35.036 30.872C41.516 30.872 46.844 30.872 46.844 21.8C46.844 12.5768 41.3542 12.5802 35.3947 12.5839C35.2753 12.5839 35.1557 12.584 35.036 12.584L34.604 12.584ZM328.056 12.584L328.056 30.872L328.488 30.872C334.968 30.872 340.296 30.872 340.296 21.8C340.296 12.5768 334.806 12.5802 328.847 12.5839C328.727 12.5839 328.608 12.584 328.488 12.584L328.056 12.584ZM95.604 21.272C95.604 29.8165 91.4266 29.8163 85.6211 29.816L85.524 29.816L84.036 29.816L84.036 12.632L85.524 12.632C85.7122 12.632 85.8996 12.6316 86.086 12.6312C91.2236 12.6199 95.604 12.6103 95.604 21.272ZM363.212 21.272C363.212 29.8165 359.035 29.8163 353.229 29.816L353.132 29.816L351.644 29.816L351.644 12.632L353.132 12.632C353.32 12.632 353.508 12.6316 353.694 12.6312C358.832 12.6199 363.212 12.6103 363.212 21.272Z" />
        </g>
        <g id="Group" transform="translate(5 0)">
          <g fill="url(#gradient_1)" stroke="none" id="{">
            <path d="M17.3438 75.0938Q7.75 74.9688 7.75 65.4063L7.75 56.0313Q7.75 49.7188 2.875 49.4063L2.875 45.7813Q7.75 45.4688 7.75 39.0313L7.75 29.9063Q7.75 20.2188 17.3438 20.0938L17.3438 24.0938Q12.375 24.2188 12.375 30.2813L12.375 39.4375Q12.375 46 7.6875 47.5L7.6875 47.625Q12.375 49.0313 12.375 55.625L12.375 64.6563Q12.375 68.125 13.4844 69.6094Q14.5938 71.0938 17.3438 71.1563L17.3438 75.0938Z" />
          </g>
          <g fill="url(#gradient_1)" stroke="none" id="}" transform="translate(439.00024 0)">
            <path d="M16.5 49.4063Q11.625 49.7188 11.625 56.0313L11.625 65.4063Q11.625 74.9688 2.0625 75.0938L2.0625 71.1563Q4.78125 71.0938 5.92188 69.5938Q7.0625 68.0938 7.0625 64.6563L7.0625 55.625Q7.0625 49.0313 11.7188 47.625L11.7188 47.5Q7.0625 46 7.0625 39.4375L7.0625 30.2813Q7.0625 24.2188 2.0625 24.0938L2.0625 20.0938Q11.625 20.2188 11.625 29.9063L11.625 39.0313Q11.625 45.4688 16.5 45.7813L16.5 49.4063Z" />
          </g>
        </g>
      </g>
    </g>
  </g>
</svg>